<svg width="164" height="38" fill="none" xmlns="http://www.w3.org/2000/svg"><path d="M13.347 22.737v5.086c0 2.543-1.312 3.46-3.397 3.46s-3.396-.917-3.396-3.46V8.596c0-2.543 1.312-3.51 3.397-3.51s3.396.967 3.396 3.51v3.815h6.197V8.952C19.544 3.255 16.207 0 9.772 0 3.336 0 0 3.255 0 8.952v18.515c0 5.697 3.336 8.953 9.772 8.953 6.435 0 9.772-3.256 9.772-8.953v-4.73h-6.197ZM38.075.407l6.674 35.606h-6.614l-1.133-6.46h-8.043l-1.133 6.46h-6.018L28.482.407h9.593ZM32.89 6.714l-3.098 18.007h6.315L33.011 6.713h-.119v.001Zm35.274 29.299h-6.673c-.357-.916-.596-1.476-.596-4.375v-5.595c0-3.306-1.311-4.527-4.29-4.527H54.34v14.497h-6.554V.407h9.892c6.792 0 9.71 2.696 9.71 8.19v2.797c0 3.662-1.37 6.002-4.289 7.172 3.278 1.271 4.35 3.916 4.35 7.63v5.493c0 1.73.06 3.001.715 4.324ZM57.5 5.493H54.34V16.43h2.562c2.444 0 3.933-.915 3.933-3.764v-3.51c0-2.543-1.012-3.663-3.336-3.663ZM88.14.407l6.674 35.606H88.2l-1.131-6.46h-8.044l-1.132 6.46h-6.019L78.548.407h9.593Zm-5.183 6.307L79.86 24.721h6.316L83.076 6.713h-.119v.001ZM100.878.407h-6.614l6.434 35.606h9.772L116.905.407h-6.018l-4.945 29.043h-.12L100.878.407Zm31.743 0 6.674 35.606h-6.614l-1.132-6.46h-8.044l-1.133 6.46h-6.018L123.028.407h9.593Zm-5.184 6.307-3.098 18.007h6.316l-3.098-18.008h-.12v.001Zm29.83 29.299H164V.407h-5.84v21.312h-.119L151.427.407h-8.222v35.606h5.899v-25.79h.118l8.045 25.79Z" fill="#9C9C9C"/></svg>