<svg width="164" height="38" fill="none" xmlns="http://www.w3.org/2000/svg"><path fill-rule="evenodd" clip-rule="evenodd" d="M24.841 16.418h2.932c3.03 0 4.667 3.208 2.693 5.286l-2.87 3.02c.31 1.792 1.358 3.412 2.934 4.536 1.576 1.125 3.565 1.673 5.568 1.534 2.004-.14 3.876-.955 5.244-2.284 1.367-1.33 2.128-3.075 2.13-4.889 0-.315.07-.628.203-.92.133-.29.33-.556.577-.779.247-.223.54-.4.863-.52.323-.12.67-.182 1.018-.181.706 0 1.382.253 1.881.703.5.45.78 1.06.781 1.697 0 2.52-.879 4.976-2.512 7.019-1.222 1.526-2.824 2.772-4.678 3.637a14.483 14.483 0 0 1-5.991 1.343 14.516 14.516 0 0 1-6.019-1.24c-1.871-.833-3.5-2.052-4.753-3.557-1.255 1.505-2.883 2.724-4.754 3.557a14.516 14.516 0 0 1-6.019 1.24 14.483 14.483 0 0 1-5.991-1.343c-1.854-.865-3.456-2.11-4.678-3.637C1.766 28.597.887 26.14.887 23.62c0-.315.068-.628.202-.92.134-.29.33-.556.577-.779.247-.223.54-.4.864-.52.323-.12.669-.182 1.018-.181.706 0 1.382.253 1.881.703.5.45.78 1.06.781 1.697-.003 1.817.755 3.567 2.121 4.9 1.02.996 2.331 1.711 3.781 2.064 1.45.354 2.98.33 4.417-.066 1.436-.396 2.72-1.15 3.703-2.175.983-1.026 1.626-2.28 1.856-3.62l-2.872-3.021c-1.972-2.077-.337-5.284 2.697-5.284l2.928-.001Z" fill="#9C9C9C"/><path d="M37.261 10.016a5.82 5.82 0 0 0 2.037-.364 5.391 5.391 0 0 0 1.727-1.04 4.805 4.805 0 0 0 1.154-1.559 4.403 4.403 0 0 0 .406-1.838c0-.631-.138-1.256-.406-1.839a4.804 4.804 0 0 0-1.154-1.558 5.391 5.391 0 0 0-1.727-1.04A5.819 5.819 0 0 0 37.26.412a5.82 5.82 0 0 0-2.036.365 5.39 5.39 0 0 0-1.726 1.04 4.804 4.804 0 0 0-1.154 1.558 4.4 4.4 0 0 0-.406 1.839 4.4 4.4 0 0 0 .406 1.838c.267.583.66 1.112 1.154 1.558.494.446 1.08.8 1.726 1.04a5.819 5.819 0 0 0 2.036.365Zm-24.84 0c.698 0 1.39-.123 2.036-.364a5.39 5.39 0 0 0 1.726-1.04 4.804 4.804 0 0 0 1.154-1.559 4.4 4.4 0 0 0 .406-1.838 4.4 4.4 0 0 0-.406-1.839 4.804 4.804 0 0 0-1.154-1.558 5.39 5.39 0 0 0-1.726-1.04A5.82 5.82 0 0 0 12.42.413c-.699 0-1.391.123-2.037.364a5.39 5.39 0 0 0-1.727 1.041 4.804 4.804 0 0 0-1.154 1.558 4.403 4.403 0 0 0-.406 1.839c0 .63.138 1.255.406 1.838.268.583.66 1.113 1.154 1.558a5.39 5.39 0 0 0 1.727 1.041 5.82 5.82 0 0 0 2.037.364Zm73.296-8.43c.82 0 1.493.212 2.02.635.526.422.79.978.79 1.666v23.71c0 .715-.249 1.283-.747 1.706-.496.423-1.156.634-1.975.634-.82 0-1.478-.211-1.976-.633-.498-.424-.747-.992-.747-1.705v-.992c-.644 1.083-1.58 1.929-2.81 2.537-1.2.608-2.576.912-4.128.912-1.845 0-3.498-.423-4.96-1.269-1.436-.845-2.562-2.035-3.382-3.569-.79-1.559-1.186-3.343-1.186-5.352 0-2.009.395-3.767 1.186-5.274.82-1.506 1.946-2.67 3.381-3.49 1.434-.819 3.088-1.229 4.961-1.229 1.552 0 2.928.292 4.128.873 1.17.555 2.133 1.41 2.766 2.458V3.807c0-.66.234-1.19.702-1.586.499-.423 1.157-.635 1.977-.635ZM77.593 26.21c1.757 0 3.103-.541 4.04-1.626.966-1.084 1.449-2.63 1.449-4.639 0-2.009-.483-3.543-1.449-4.599-.936-1.084-2.268-1.627-3.995-1.627-1.757 0-3.119.529-4.084 1.587-.966 1.057-1.45 2.577-1.45 4.56 0 2.01.484 3.568 1.45 4.679.965 1.11 2.312 1.665 4.04 1.665Zm26.371 3.846c-2.195 0-4.127-.41-5.795-1.229-1.64-.82-2.913-1.995-3.82-3.529-.908-1.533-1.362-3.317-1.362-5.353 0-2.035.453-3.807 1.361-5.313.908-1.534 2.181-2.71 3.82-3.53 1.669-.819 3.601-1.229 5.796-1.229 2.196 0 4.113.41 5.752 1.23 1.643.796 2.977 2.027 3.82 3.529.908 1.506 1.362 3.278 1.362 5.313 0 2.037-.454 3.82-1.362 5.353-.843 1.502-2.177 2.734-3.82 3.53-1.639.818-3.557 1.228-5.752 1.228Zm-.043-3.846c1.785 0 3.146-.529 4.083-1.586.937-1.057 1.405-2.617 1.405-4.679 0-2.035-.468-3.582-1.405-4.639-.937-1.084-2.283-1.626-4.04-1.626-1.755 0-3.118.542-4.083 1.626-.936 1.057-1.406 2.604-1.406 4.64 0 2.06.469 3.62 1.406 4.678.937 1.057 2.283 1.586 4.04 1.586Zm33.686-16.257c.82 0 1.478.212 1.975.633.499.424.747.992.747 1.705v15.663c0 3.04-.937 5.34-2.81 6.9-1.874 1.56-4.639 2.34-8.299 2.34-3.19 0-5.854-.542-7.991-1.626-1.083-.582-1.625-1.282-1.625-2.102 0-.581.147-1.043.44-1.387.321-.344.731-.517 1.228-.517.265 0 .586.054.967.16.38.132.776.278 1.185.436.917.352 1.855.657 2.811.912.849.211 1.814.317 2.898.317 3.834 0 5.751-1.691 5.751-5.076v-2.537c-.644 1.084-1.58 1.929-2.809 2.538-1.23.582-2.635.872-4.216.872-1.874 0-3.542-.397-5.006-1.189a8.879 8.879 0 0 1-3.38-3.41c-.82-1.455-1.23-3.133-1.23-5.037 0-1.902.396-3.581 1.186-5.035.82-1.481 1.961-2.617 3.424-3.41 1.464-.82 3.132-1.23 5.006-1.23 1.581 0 2.986.304 4.216.912 1.197.554 2.178 1.426 2.809 2.498v-1.03c0-.687.25-1.243.747-1.667.497-.421 1.157-.633 1.976-.633Zm-8.299 15.385c1.757 0 3.118-.516 4.083-1.546.996-1.032 1.493-2.446 1.493-4.244 0-1.823-.497-3.25-1.493-4.282-.965-1.03-2.326-1.546-4.083-1.546-1.727 0-3.089.515-4.083 1.546-.995 1.031-1.494 2.458-1.494 4.283 0 1.797.499 3.211 1.494 4.243.994 1.03 2.356 1.546 4.083 1.546Zm24.477 4.718c-3.19 0-5.765-.568-7.727-1.705-.936-.502-1.405-1.216-1.405-2.14 0-.53.161-.953.483-1.27a1.56 1.56 0 0 1 1.185-.516c.498 0 1.186.213 2.064.636.937.396 1.786.7 2.547.912.791.21 1.785.316 2.985.316 1.23 0 2.182-.185 2.855-.555.702-.37 1.053-.885 1.053-1.547 0-.448-.146-.805-.439-1.07-.263-.264-.761-.502-1.492-.714-.704-.237-1.786-.501-3.25-.793-2.605-.475-4.479-1.15-5.62-2.021-1.113-.873-1.668-2.076-1.668-3.609 0-1.163.379-2.207 1.141-3.133.761-.951 1.8-1.678 3.117-2.18 1.347-.529 2.869-.794 4.566-.794 1.23 0 2.416.146 3.558.437a11.01 11.01 0 0 1 3.074 1.188c.936.53 1.404 1.23 1.404 2.103 0 .528-.16.978-.483 1.348a1.563 1.563 0 0 1-1.186.516 3.09 3.09 0 0 1-.965-.159 28.792 28.792 0 0 1-1.142-.555c-.849-.397-1.581-.687-2.196-.872-.615-.212-1.375-.318-2.283-.318-1.083 0-1.946.199-2.59.594-.615.397-.923.94-.923 1.627 0 .66.323 1.163.967 1.506.644.344 1.888.688 3.732 1.032 1.962.37 3.498.792 4.61 1.268 1.113.476 1.903 1.071 2.371 1.784.498.715.747 1.627.747 2.736 0 1.798-.835 3.24-2.503 4.323-1.64 1.083-3.835 1.625-6.587 1.625Z" fill="#9C9C9C"/></svg>