<svg width="175" height="40" fill="none" xmlns="http://www.w3.org/2000/svg"><g clip-path="url(#a)"><path d="M2.868 31.655c-.866 0-1.568-.265-2.106-.796C.254 30.329 0 29.636 0 28.78V2.918C0 2.063.239 1.4.717.928 1.225.457 1.912.221 2.78.221h15.73c1.823 0 2.734.766 2.734 2.299 0 1.503-.911 2.255-2.733 2.255H5.691v8.488h11.921c1.823 0 2.734.767 2.734 2.3 0 1.502-.911 2.254-2.734 2.254H5.692V28.78c0 .855-.254 1.547-.762 2.078-.508.53-1.195.796-2.062.796Zm26.597 0c-.807 0-1.479-.221-2.017-.663-.508-.472-.762-1.135-.762-1.99V2.608c0-.854.254-1.503.762-1.945C27.986.221 28.658 0 29.465 0c.807 0 1.48.221 2.017.663.538.442.807 1.09.807 1.945v26.394c0 .855-.27 1.518-.807 1.99-.538.442-1.21.663-2.017.663Zm25.945-6.19c.508 0 .911.192 1.21.575.329.383.493.899.493 1.547 0 .914-.553 1.68-1.658 2.3-1.016.56-2.166 1.016-3.451 1.37-1.285.324-2.51.486-3.675.486-3.526 0-6.32-1.002-8.381-3.006-2.062-2.004-3.092-4.745-3.092-8.223 0-2.21.448-4.17 1.344-5.88.896-1.71 2.151-3.036 3.765-3.98 1.643-.942 3.495-1.414 5.557-1.414 1.972 0 3.69.427 5.154 1.282s2.6 2.063 3.406 3.625c.807 1.563 1.21 3.405 1.21 5.527 0 1.267-.568 1.9-1.703 1.9H42.37c.178 2.034.761 3.538 1.747 4.51.986.943 2.42 1.415 4.302 1.415.956 0 1.793-.118 2.51-.354.747-.235 1.584-.56 2.51-.972.896-.472 1.554-.708 1.972-.708ZM47.656 13.13c-1.524 0-2.75.472-3.675 1.415-.897.943-1.435 2.3-1.614 4.068h10.129c-.06-1.798-.508-3.154-1.345-4.068-.836-.943-2.002-1.415-3.495-1.415Zm32.783 14.192c.538.53.807 1.135.807 1.813 0 .648-.254 1.238-.762 1.768-.508.501-1.105.752-1.793.752-.747 0-1.389-.31-1.927-.929l-6.319-6.896-6.32 6.896c-.567.59-1.21.884-1.926.884-.658 0-1.24-.25-1.748-.751s-.762-1.076-.762-1.724c0-.678.269-1.282.807-1.813l6.543-7.03-6.185-6.63c-.538-.532-.807-1.136-.807-1.814 0-.678.254-1.252.762-1.724.508-.5 1.09-.751 1.748-.751.717 0 1.36.294 1.927.884l5.961 6.455 5.96-6.455c.568-.59 1.21-.884 1.928-.884.687 0 1.27.25 1.748.751.508.472.761 1.046.761 1.724 0 .678-.268 1.282-.806 1.813l-6.185 6.632 6.588 7.03Zm24.795-12.025c1.822.5 3.227 1.415 4.213 2.74 1.015 1.327 1.523 2.948 1.523 4.864 0 2.653-.971 4.73-2.913 6.234-1.912 1.503-4.556 2.255-7.932 2.255H88.562c-.867 0-1.554-.236-2.062-.708-.478-.471-.717-1.135-.717-1.99V2.919c0-.855.24-1.518.717-1.99.508-.471 1.195-.707 2.062-.707h11.113c3.287 0 5.856.722 7.709 2.166 1.882 1.415 2.823 3.405 2.823 5.969 0 1.65-.448 3.08-1.344 4.288-.867 1.209-2.077 2.093-3.63 2.653h.001ZM91.43 13.352h7.305c3.974 0 5.961-1.46 5.961-4.377 0-1.474-.493-2.564-1.479-3.272-.986-.707-2.48-1.06-4.482-1.06H91.43v8.709Zm8.067 13.616c2.092 0 3.615-.368 4.571-1.105.957-.737 1.435-1.886 1.435-3.448s-.493-2.727-1.479-3.493c-.956-.766-2.465-1.15-4.527-1.15H91.43v9.196h8.067Zm19.165 4.687c-.807 0-1.479-.221-2.017-.663-.508-.472-.762-1.135-.762-1.99V2.608c0-.854.254-1.503.762-1.945.538-.442 1.21-.663 2.017-.663.806 0 1.479.221 2.017.663.537.442.806 1.09.806 1.945v26.394c0 .855-.269 1.518-.806 1.99-.538.442-1.211.663-2.017.663Zm18.595.088c-2.241 0-4.213-.457-5.916-1.37-1.673-.914-2.973-2.226-3.899-3.935-.927-1.71-1.39-3.7-1.39-5.968 0-2.27.463-4.245 1.39-5.925.926-1.71 2.226-3.02 3.899-3.934 1.703-.914 3.675-1.371 5.916-1.371 2.24 0 4.197.457 5.871 1.37a9.243 9.243 0 0 1 3.899 3.935c.926 1.68 1.389 3.655 1.389 5.925 0 2.269-.463 4.258-1.389 5.968a9.243 9.243 0 0 1-3.899 3.935c-1.674.913-3.631 1.37-5.871 1.37Zm-.045-4.288c1.822 0 3.212-.59 4.168-1.769.956-1.179 1.434-2.918 1.434-5.216 0-2.27-.478-3.994-1.434-5.173-.956-1.209-2.331-1.813-4.123-1.813-1.793 0-3.182.604-4.168 1.813-.957 1.179-1.435 2.903-1.435 5.172 0 2.3.478 4.038 1.435 5.217.956 1.18 2.33 1.769 4.123 1.769Zm34.383-18.127c.837 0 1.509.236 2.017.708.508.471.762 1.105.762 1.9V29.4c0 3.39-.956 5.954-2.869 7.693-1.912 1.739-4.735 2.608-8.47 2.608-3.257 0-5.976-.604-8.157-1.813-1.105-.648-1.658-1.429-1.658-2.343 0-.648.149-1.164.448-1.547a1.581 1.581 0 0 1 1.255-.575c.269 0 .598.06.986.177.388.147.792.31 1.21.486 1.076.442 2.032.781 2.868 1.017.867.236 1.853.354 2.958.354 3.914 0 5.871-1.886 5.871-5.66v-2.829c-.657 1.209-1.613 2.152-2.868 2.83-1.255.648-2.689.973-4.302.973-1.913 0-3.616-.443-5.11-1.327-1.464-.913-2.614-2.18-3.45-3.802-.837-1.62-1.255-3.492-1.255-5.615 0-2.122.403-3.993 1.21-5.614.836-1.65 2.002-2.918 3.495-3.803 1.494-.913 3.197-1.37 5.11-1.37 1.613 0 3.047.339 4.302 1.017a6.66 6.66 0 0 1 2.868 2.785v-1.15c0-.766.254-1.385.762-1.856.508-.472 1.18-.708 2.017-.708Zm-8.47 17.154c1.792 0 3.182-.575 4.168-1.724 1.015-1.15 1.523-2.726 1.523-4.73 0-2.034-.508-3.626-1.523-4.775-.986-1.15-2.376-1.725-4.168-1.725-1.763 0-3.153.575-4.168 1.725-1.016 1.15-1.524 2.74-1.524 4.774 0 2.005.508 3.581 1.524 4.73 1.015 1.15 2.405 1.725 4.168 1.725Z" fill="#9C9C9C"/></g><defs><clipPath id="a"><path fill="#fff" d="M0 0h175v40H0z"/></clipPath></defs></svg>