<svg width="164" height="38" fill="none" xmlns="http://www.w3.org/2000/svg"><g clip-path="url(#a)"><path d="m29.393 8.196-5.43 21.506h-7.801l1.982-7.765H9.74l-1.942 7.765H0L5.473 8.196h7.758l-2.327 9.08h8.403l2.33-9.08h7.756Zm16 21.506.26-4.689h-7.198l-2.112 4.69h-8.232L39.188 8.195h14.22l.174 21.506h-8.19Zm-1.767-16.279-3.404 7.587h5.646l.473-7.586h-2.715Zm43.427-5.227-5.43 21.506H73.82l-5.428-11.768-2.931 11.77H57.66l5.473-21.508h8.016l5.345 10.993 2.8-10.993h7.76Zm18.2 0c3.763 0 6.45.657 8.058 1.971 1.179.996 1.766 2.24 1.766 3.734 0 .538-.071 1.105-.213 1.703l-1.682 6.661c-.574 2.25-1.983 4.052-4.223 5.407-2.242 1.354-5.143 2.03-8.708 2.03h-12.54l5.474-21.506h12.068Zm-2.716 4.66h-2.801l-3.06 12.186h4.094c1.35 0 2.399-.25 3.146-.746.776-.519 1.307-1.355 1.593-2.51l1.251-4.898c.109-.395.167-.795.173-1.196 0-1.892-1.464-2.836-4.396-2.836Zm35.638 16.846H116.54l5.476-21.506h21.635l-1.207 4.66h-13.877l-.992 4.033h11.464l-1.206 4.659h-11.465l-.861 3.495h13.878l-1.21 4.66Zm24.618 0H143.14l5.475-21.506h7.757l-4.266 16.847H164l-1.207 4.66ZM86.685 33.53h74.972L159.315 38H84.343l2.342-4.47ZM8.2 0h82l-2.343 4.47h-82L8.2 0Z" fill="#9C9C9C"/></g><defs><clipPath id="a"><path fill="#fff" d="M0 0h164v38H0z"/></clipPath></defs></svg>