<svg width="211" height="46" fill="none" xmlns="http://www.w3.org/2000/svg"><g clip-path="url(#a)"><mask id="b" style="mask-type:luminance" maskUnits="userSpaceOnUse" x="0" y="0" width="211" height="46"><path d="M0 0h211v46H0V0Z" fill="#fff"/></mask><g mask="url(#b)"><path fill-rule="evenodd" clip-rule="evenodd" d="M14.136 40.528a.814.814 0 0 1-.388-.103.91.91 0 0 1-.307-.283 2.886 2.886 0 0 1-.456-1.154 17.191 17.191 0 0 1-.254-1.616c-.07-.699-.106-1.402-.107-2.106-.021-1.546-.017-3.092.014-4.638.018-.949.026-1.69.026-2.224V10.732c0-.871.005-1.533.014-1.987.01-.455.041-.969.093-1.542.03-.426.097-.848.202-1.26.101-.317.236-.62.4-.904a1.8 1.8 0 0 1 .642-.712c.313-.172.634-.325.963-.46a5.919 5.919 0 0 1 1.31-.37 35.05 35.05 0 0 1 1.753-.238V1.627l-.457-.505H1.432l-.428.505V3.02c2.71.179 4.226 1.03 4.547 2.55.187 1.285.276 2.584.268 3.885v27.07a30.042 30.042 0 0 1-.161 4.21 1.991 1.991 0 0 1-.321.592c-.207.273-.425.535-.654.785a9.262 9.262 0 0 0-.522.609v1.037c13.783 0 22.314.1 25.594.298l1.152-4.3-.723-.564a145.438 145.438 0 0 1-16.047 1.335v.001Zm25.62-12.393a.671.671 0 0 1-.16.03c-.267 0-.4-.108-.4-.326 0-.983.067-1.964.2-2.936.15-1.06.4-2.098.749-3.098a12.235 12.235 0 0 1 1.366-2.846 6.617 6.617 0 0 1 2.296-2.102 5.917 5.917 0 0 1 2.906-.73 3.86 3.86 0 0 1 2.103.48 4.363 4.363 0 0 1 1.614 1.566 8.77 8.77 0 0 1 1.258 4.685 1.611 1.611 0 0 1-.252.851c-.16.25-.385.438-.645.542a40.89 40.89 0 0 1-4.48 1.69 280.596 280.596 0 0 0-6.39 2.166.687.687 0 0 0-.165.028Zm15.886 9.25c-3.21 2.155-5.983 3.232-8.316 3.232-1.58.038-3.133-.47-4.44-1.453-1.216-.903-2.184-2.16-2.795-3.632a12.235 12.235 0 0 1-.896-4.698c11.661-4.013 17.545-6.02 17.651-6.02.463-.105.877-.39 1.167-.803.29-.413.435-.927.41-1.45a9.193 9.193 0 0 0-.895-4.18 6.96 6.96 0 0 0-2.42-2.772 11.094 11.094 0 0 0-3.303-1.453 15.32 15.32 0 0 0-3.84-.46 14.865 14.865 0 0 0-6.738 1.498c-1.872.894-3.526 2.266-4.826 4.003a18.853 18.853 0 0 0-2.795 5.633 22.096 22.096 0 0 0-.964 6.538c0 4.566 1.116 7.986 3.344 10.259 2.014 2.075 4.859 3.112 8.531 3.112a12.714 12.714 0 0 0 6.058-1.63 46.122 46.122 0 0 0 6.485-4.33l-.585-1.154-.833-.24ZM91.663 6.124c-.716-2.07-2.123-3.758-3.931-4.715a15.207 15.207 0 0 0-7.087-1.423 18.928 18.928 0 0 0-5.255.712 15.225 15.225 0 0 0-4.52 2.135c-1.37.955-2.49 2.29-3.25 3.87a12.568 12.568 0 0 0-1.204 5.618c0 1.4.307 2.778.896 4.017a11.174 11.174 0 0 0 2.247 3.248 27.78 27.78 0 0 0 3.155 2.653 36.151 36.151 0 0 0 3.451 2.253 58.43 58.43 0 0 1 3.29 2.017c.892.56 1.73 1.22 2.5 1.972 1.978 2.036 2.969 3.973 2.969 5.811a7.8 7.8 0 0 1-.543 2.838c-.354.894-.87 1.7-1.517 2.365a6.781 6.781 0 0 1-2.262 1.699c-.85.39-1.764.584-2.685.57a6.485 6.485 0 0 1-3.127-.698 7.196 7.196 0 0 1-2.53-2.149c-1.419-1.798-2.194-4.108-2.178-6.495l-1.042-.415-5.322 6.612c1.216 1.946 2.865 3.514 4.788 4.551a12.945 12.945 0 0 0 6.284 1.588 18.148 18.148 0 0 0 5.858-1.01 20.708 20.708 0 0 0 5.403-2.743c1.595-1.127 2.95-2.623 3.97-4.387 1-1.676 1.535-3.64 1.538-5.649a9.593 9.593 0 0 0-.507-3.157 10.453 10.453 0 0 0-1.31-2.61c-.65-.88-1.401-1.663-2.235-2.327a28.547 28.547 0 0 0-2.848-2.092 95.195 95.195 0 0 0-3.583-2.15 44.807 44.807 0 0 1-2.487-1.438 29.609 29.609 0 0 1-2.25-1.609 11.72 11.72 0 0 1-2.031-1.975 9.357 9.357 0 0 1-1.285-2.313 7.69 7.69 0 0 1-.534-2.861 6.59 6.59 0 0 1 .381-2.354c.269-.75.67-1.43 1.181-2.005a5.493 5.493 0 0 1 1.897-1.369 5.038 5.038 0 0 1 2.235-.409 5.87 5.87 0 0 1 2.758.546 6.462 6.462 0 0 1 2.283 1.795c1.267 1.586 2.065 3.562 2.287 5.664l.936.325 5.216-4.506Zm26.008 11.37a5.742 5.742 0 0 0-2.005-2.223 9.128 9.128 0 0 0-2.648-1.141 12.327 12.327 0 0 0-3.035-.356 14.492 14.492 0 0 0-5.71 1.083 12.265 12.265 0 0 0-4.225 2.86 15.53 15.53 0 0 0-2.782 4.195 21.356 21.356 0 0 0-1.592 4.966 28.566 28.566 0 0 0-.48 5.307 17.143 17.143 0 0 0 .574 4.475 13.971 13.971 0 0 0 1.724 3.929c.808 1.233 1.891 2.214 3.144 2.846a9.677 9.677 0 0 0 4.586 1.053c5.01 0 9.717-2.442 14.121-7.323l-.535-.86-.668-.178c-3.263 2.787-6.276 4.18-9.04 4.18a5.896 5.896 0 0 1-2.981-.756 6.188 6.188 0 0 1-2.129-1.956 12.347 12.347 0 0 1-1.352-2.757 16.013 16.013 0 0 1-.761-3.039 20.845 20.845 0 0 1-.214-2.965c.006-1.262.104-2.52.294-3.765a27.73 27.73 0 0 1 .936-4.077 8.71 8.71 0 0 1 1.899-3.44c.384-.43.842-.772 1.348-1.003a3.757 3.757 0 0 1 1.594-.346 3.63 3.63 0 0 1 2.101.525 4.163 4.163 0 0 1 1.536 1.67 11.298 11.298 0 0 1 1.176 5.396l.937.415 5.054-3.32a8.113 8.113 0 0 0-.867-3.395Zm9.803 8.821c.135-1.164.373-2.31.709-3.424a13.433 13.433 0 0 1 1.296-3.068 6.498 6.498 0 0 1 2.074-2.15 5.285 5.285 0 0 1 2.955-.845 5.476 5.476 0 0 1 3.195.934 5.997 5.997 0 0 1 2.072 2.55 14.574 14.574 0 0 1 1.042 3.424c.22 1.279.329 2.58.322 3.884 0 1.186-.009 2.175-.028 2.964-.028.952-.09 1.902-.186 2.848a18.777 18.777 0 0 1-.441 2.757c-.21.796-.483 1.57-.816 2.313a5.781 5.781 0 0 1-1.298 1.926 6.276 6.276 0 0 1-1.899 1.186 6.721 6.721 0 0 1-2.607.475 4.432 4.432 0 0 1-2.742-.92 6.585 6.585 0 0 1-1.911-2.268 14.877 14.877 0 0 1-1.15-3.097 22.51 22.51 0 0 1-.616-3.248 27.326 27.326 0 0 1-.16-2.861 29.79 29.79 0 0 1 .189-3.38Zm-3.317 15.33c1.943 1.956 5.028 2.935 9.254 2.935 1.562.01 3.12-.188 4.64-.594a13.037 13.037 0 0 0 4.035-1.912 12.513 12.513 0 0 0 3.223-3.306 16.196 16.196 0 0 0 2.113-4.922 25.76 25.76 0 0 0 .776-6.581 13.514 13.514 0 0 0-.881-5.22 12.419 12.419 0 0 0-2.783-4.328c-2.23-2.213-5.466-3.32-9.708-3.32-4.243 0-7.738 1.453-10.484 4.359a14.706 14.706 0 0 0-3.122 5.013 15.963 15.963 0 0 0-.997 5.986c0 5.298 1.31 9.26 3.931 11.89h.003ZM166.01 18.16c1.427 0 2.443.316 3.05.95.565.762.922 1.689 1.028 2.67.225 1.155.364 2.33.415 3.512.036 1.038.054 2.378.054 4.018-.001 2.13-.015 4.26-.039 6.39a63.68 63.68 0 0 0 .012 2.268c.005.649.04 1.297.107 1.941.054.427.125.891.214 1.394.062.421.189.826.375 1.2.16.297.357.568.586.802.802.806 1.858 1.23 2.941 1.185 1.338 0 2.871-.752 4.6-2.253a52.976 52.976 0 0 0 4.119-4.24l-.615-1.01h-.642c-1.046.928-2.325 1.476-3.663 1.571a1.91 1.91 0 0 1-.834-.135 2.068 2.068 0 0 1-.718-.487 2.236 2.236 0 0 1-.469-.577 4.651 4.651 0 0 1-.28-1.216 19.101 19.101 0 0 1-.134-2.565c0-.652.032-1.705.093-3.157.05-1.032.082-2.066.095-3.099v-1.78c.017-1.917.013-3.245-.013-3.988a31.208 31.208 0 0 0-.309-3.024 5.887 5.887 0 0 0-.829-2.638 5.645 5.645 0 0 0-1.658-1.364 5.35 5.35 0 0 0-2.728-.638c-3.138 0-6.775 1.424-10.911 4.27l-.642-.267a6.038 6.038 0 0 0-.922-3.038c-.527-.763-1.432-1.142-2.715-1.142a6.674 6.674 0 0 0-2.26.43 10.49 10.49 0 0 0-2.408 1.274 36.276 36.276 0 0 0-2.113 1.572 63.768 63.768 0 0 0-2.073 1.764l.989 1.452c.182-.13.365-.258.549-.384.312-.218.583-.395.816-.534.231-.139.508-.301.828-.49.288-.172.588-.317.897-.433.237-.09.484-.14.735-.148.309-.008.614.079.882.253.272.198.477.49.587.83.133.359.249.723.347 1.096a8.34 8.34 0 0 1 .187 1.528c.037.673.058 1.216.065 1.63.008.414.012 1.037.013 1.868v.505c0 1.937-.134 7.866-.4 17.789l.668.415 6.018-1.928c-.179-.849-.313-3.527-.402-8.033a640.637 640.637 0 0 1-.13-13.224c3.102-1.858 5.313-2.787 6.632-2.787l.005.002Zm25.942 10.109a.653.653 0 0 1-.16.031c-.267 0-.401-.108-.402-.325.001-.984.068-1.965.202-2.936.15-1.06.401-2.098.748-3.099a12.318 12.318 0 0 1 1.364-2.846A6.616 6.616 0 0 1 196 16.992a5.908 5.908 0 0 1 2.906-.73 3.856 3.856 0 0 1 2.103.48 4.361 4.361 0 0 1 1.614 1.567 8.765 8.765 0 0 1 1.257 4.684 1.616 1.616 0 0 1-.252.851c-.16.25-.384.438-.644.543a40.96 40.96 0 0 1-4.479 1.69 279.475 279.475 0 0 0-6.391 2.166.722.722 0 0 0-.161.028l-.001-.001Zm15.886 9.252c-3.21 2.155-5.983 3.232-8.317 3.23-1.581.038-3.132-.469-4.44-1.451-1.216-.903-2.183-2.16-2.794-3.632a12.256 12.256 0 0 1-.897-4.7c11.661-4.012 17.545-6.018 17.652-6.018.463-.105.877-.39 1.166-.804.29-.413.436-.928.412-1.45a9.202 9.202 0 0 0-.896-4.18 6.964 6.964 0 0 0-2.42-2.773 11.116 11.116 0 0 0-3.303-1.453 15.316 15.316 0 0 0-3.841-.46 14.864 14.864 0 0 0-6.736 1.498c-1.872.895-3.526 2.266-4.826 4.003a18.827 18.827 0 0 0-2.795 5.634 22.073 22.073 0 0 0-.963 6.537c0 4.567 1.114 7.985 3.343 10.26 2.014 2.075 4.858 3.112 8.531 3.112a12.714 12.714 0 0 0 6.058-1.63 46.205 46.205 0 0 0 6.485-4.33l-.585-1.154-.834-.24Z" fill="#9C9C9C"/></g></g><defs><clipPath id="a"><path fill="#fff" d="M0 0h211v46H0z"/></clipPath></defs></svg>