<svg width="164" height="38" fill="none" xmlns="http://www.w3.org/2000/svg"><g clip-path="url(#a)"><path d="M53.88 37.493V0h-9.946L23.137 28.93l-3.51-4.205c6.276-.912 9.787-6.181 9.787-11.805 0-5.37-3.085-9.88-7.234-11.603C20.105.456 17.02 0 12.925 0H0v37.493h9.627V25.384h.107l9.095 12.11h10.16l3.456-5.422h11.383v5.421H53.88ZM9.628 18.848V8.411h3.83c3.776 0 6.33 1.824 6.33 5.066 0 3.446-2.394 5.371-6.383 5.371H9.627Zm34.2 5.624h-6.595l6.49-10.387h.106v10.387Zm50.395 13.021V0h-9.627l.426 23.712L69.702 0h-8.67v37.493h9.628l-.266-22.901 15.105 22.901h8.723Zm29.031 0v-8.41h-12.234v-6.435h11.861v-8.41h-11.861V8.41h12.234V0h-21.861v37.493h21.861Zm39.96 0-13.882-18.797L162.362 0h-10.531l-11.117 16.872h-.106V0h-10.053v37.493h10.053V21.28h.106l10.744 16.213h11.755Z" fill="#9C9C9C"/></g><defs><clipPath id="a"><path fill="#fff" d="M0 0h164v38H0z"/></clipPath></defs></svg>