<svg width="225" height="46" fill="none" xmlns="http://www.w3.org/2000/svg"><g clip-path="url(#a)" fill="#9C9C9C"><path d="M61.178 41.32c-3.734 0-6.598-.534-8.59-1.6-1.958-1.097-2.935-2.697-2.935-4.801 0-1.067.427-1.942 1.28-2.623.89-.71 2.029-1.067 3.416-1.067.818.03 1.44.207 1.867.534.428.296.641.578.641.844 0 .03-.178.134-.534.311a2.92 2.92 0 0 0-.96.8c-.285.357-.428.845-.428 1.467 0 1.393.5 2.475 1.495 3.246 1.032.74 2.614 1.11 4.748 1.11 1.46 0 2.74-.236 3.844-.71 1.102-.475 1.938-1.097 2.507-1.868.604-.8.907-1.63.907-2.49 0-1.066-.374-1.984-1.12-2.755a8.543 8.543 0 0 0-2.668-1.91c-1.069-.534-2.527-1.142-4.376-1.824-2.134-.8-3.859-1.526-5.175-2.178-1.323-.656-2.468-1.534-3.364-2.578-.924-1.096-1.386-2.444-1.386-4.045 0-2.578 1.048-4.504 3.148-5.778 2.135-1.275 4.927-1.912 8.378-1.912 2.703 0 5.05.474 7.043 1.423 2.029.948 3.042 2.341 3.042 4.177 0 1.068-.445 1.957-1.334 2.668-.854.682-1.974 1.023-3.361 1.023-.82-.03-1.442-.194-1.868-.49-.427-.325-.641-.622-.641-.889 0-.03.231-.133.694-.311a3.39 3.39 0 0 0 1.28-.8c.392-.356.587-.845.587-1.466 0-1.097-.515-1.957-1.546-2.58-.997-.622-2.278-.932-3.844-.932-2.168 0-3.823.43-4.96 1.288-1.104.83-1.656 1.868-1.656 3.113 0 1.036.338 1.91 1.014 2.622.675.681 1.76 1.363 3.255 2.044a75.468 75.468 0 0 0 3.948 1.6c2.277.86 4.074 1.646 5.39 2.357 1.356.714 2.504 1.67 3.362 2.8.924 1.155 1.388 2.593 1.388 4.311 0 1.483-.57 2.83-1.708 4.047-1.102 1.184-2.615 2.117-4.536 2.799-1.885.681-3.966 1.022-6.243 1.022Zm27.015-.356c-2.419 0-4.34-.608-5.763-1.823-1.423-1.215-2.134-2.815-2.134-4.8v-8.224c0-.77-.036-1.333-.107-1.69-.035-.354-.249-.666-.641-.932-.39-.267-1.049-.4-1.974-.4-.427 0-.747-.044-.96-.133-.214-.119-.32-.371-.32-.756 0-.179.07-.341.214-.488.142-.179.355-.282.64-.312 2.24-.268 4.162-.652 5.762-1.157.499-.147.907-.236 1.228-.266h.16c.569 0 .854.281.854.845v13.468c0 1.363.516 2.416 1.547 3.157 1 .701 2.269 1.08 3.575 1.066 1.672 0 3.094-.34 4.269-1.022 1.174-.682 1.957-1.364 2.347-2.045v-9.334c0-.771-.034-1.333-.105-1.69-.036-.355-.25-.667-.641-.933-.392-.267-1.05-.4-1.975-.4-.427 0-.747-.044-.96-.133-.213-.119-.32-.371-.32-.756 0-.179.07-.341.214-.488.141-.179.355-.282.64-.312 2.24-.268 4.162-.652 5.763-1.157.497-.147.907-.236 1.226-.266h.161c.569 0 .854.281.854.845v15.38c0 1.75 1.405 2.623 4.215 2.623.605 0 .907.282.907.845 0 .414-.302.667-.907.755l-8.591.49c-.249 0-.392-.075-.428-.222-.033-.12-.052-.341-.052-.667v-2.49h-.106a62.245 62.245 0 0 1-2.509 1.866c-.64.415-1.476.77-2.509 1.067-.995.326-2.187.489-3.574.489Zm21.596-.4a.948.948 0 0 1-.359-.07.793.793 0 0 1-.283-.197.971.971 0 0 1-.213-.621c.036-.385.142-.609.32-.667.179-.09.499-.134.961-.134.925 0 1.583-.134 1.974-.4.392-.267.606-.578.64-.933.072-.357.107-.92.107-1.69v-10.18c0-.77-.035-1.332-.107-1.69-.034-.354-.248-.666-.64-.931-.391-.267-1.049-.401-1.974-.401-.428 0-.747-.044-.96-.133-.213-.119-.32-.37-.32-.756a.69.69 0 0 1 .213-.488c.142-.179.356-.282.641-.312 2.311-.297 4.215-.682 5.709-1.156.605-.148 1.014-.237 1.227-.266h.16c.569 0 .854.281.854.845v2.755h.16c1.245-1.037 2.508-1.852 3.789-2.445 1.281-.622 2.436-.933 3.468-.933 1.175 0 2.099.37 2.775 1.11.711.712 1.067 1.542 1.067 2.49 0 .83-.302 1.571-.907 2.223-.605.652-1.441.978-2.507.978a3.198 3.198 0 0 1-1.335-.267c-.355-.178-.551-.326-.587-.444.036-.06.214-.237.533-.534.321-.326.481-.696.481-1.11 0-.535-.178-.964-.534-1.29-.32-.326-.765-.489-1.334-.489-.604 0-1.369.252-2.294.756a14.8 14.8 0 0 0-2.721 1.822v10.846c0 .77.035 1.333.106 1.69.072.355.302.666.694.933.391.266 1.049.4 1.974.4h.321c.284 0 .497.045.64.133.142.09.231.312.267.666a.962.962 0 0 1-.214.623c-.142.178-.356.268-.64.268-1.866-.085-3.734-.13-5.603-.135-1.601 0-3.45.046-5.549.135Zm82.875.4c-2.419 0-4.571-.475-6.456-1.423-1.886-.977-3.362-2.252-4.43-3.822-1.017-1.555-1.549-3.297-1.546-5.068 0-2.222.622-4.148 1.867-5.778a11.916 11.916 0 0 1 4.749-3.779c1.921-.889 3.86-1.333 5.816-1.333 2.42 0 4.572.488 6.457 1.467 1.85.916 3.363 2.239 4.376 3.822 1.053 1.528 1.605 3.26 1.6 5.023 0 2.223-.64 4.164-1.92 5.824-1.245 1.63-2.828 2.889-4.75 3.778-1.92.86-3.842 1.29-5.763 1.29Zm0-1.644c2.42 0 4.18-.86 5.283-2.58 1.138-1.717 1.708-3.94 1.708-6.666 0-2.55-.588-4.623-1.761-6.224-1.138-1.63-2.882-2.444-5.23-2.444-2.454 0-4.232.845-5.336 2.534-1.102 1.689-1.654 3.896-1.654 6.623 0 2.548.57 4.652 1.708 6.311 1.139 1.63 2.899 2.446 5.282 2.446Zm25.879 1.866c-1.743 0-3.237-.533-4.483-1.6-1.244-1.067-1.867-2.593-1.867-4.578V21.939l-3.095.09a.766.766 0 0 1-.299-.058.64.64 0 0 1-.234-.165.902.902 0 0 1-.214-.578c0-.267.054-.489.16-.667a.798.798 0 0 1 .587-.356c1.245-.206 2.206-.533 2.882-.977.711-.475 1.228-.978 1.547-1.511.321-.564.712-1.409 1.175-2.535.177-.385.569-.578 1.173-.578.249 0 .498.06.747.179.249.088.373.237.373.444l-.373 5.067 6.244-.311h.107c.462 0 .693.281.693.845 0 .325-.071.637-.214.933-.106.267-.249.4-.427.4l-5.976-.133v13.513c0 .978.231 1.793.693 2.445.499.652 1.299.978 2.402.978 1.103 0 2.082-.163 2.934-.49.464-.147.747-.222.854-.222.25 0 .446.09.587.267.143.148.285.357.428.622.038.07.056.146.053.223 0 .118-.107.251-.321.4-1.031.563-2.009.934-2.934 1.111-.89.207-1.957.311-3.202.311Zm-86.247-.89c.142.18.356.268.641.268 1.848-.085 3.698-.13 5.549-.134 2.384 0 4.607.045 6.67.134a.785.785 0 0 0 .337-.069.64.64 0 0 0 .251-.198.973.973 0 0 0 .212-.622c-.035-.355-.124-.578-.266-.667-.107-.088-.32-.133-.641-.133h-.32c-1.174 0-2.009-.075-2.508-.223-.498-.147-.836-.415-1.013-.8-.178-.415-.267-1.081-.267-2V22.028h5.656a.943.943 0 0 0 .358-.072.795.795 0 0 0 .283-.195.854.854 0 0 0 .266-.623c-.036-.354-.143-.577-.32-.666-.142-.118-.374-.178-.693-.178h-5.55v-2.666c0-1.423.071-2.668.213-3.735a6.43 6.43 0 0 1 1.227-3.023c.676-.918 1.726-1.377 3.149-1.377.163 0 .322.007.475.023-.02-.498.019-.996.117-1.488a10.878 10.878 0 0 0-.219-.002c-3.131.059-5.567 1.051-7.31 2.978-1.708 1.897-2.562 4.371-2.562 7.423v1.868h-3.201c-.463 0-.783.044-.961.133-.178.059-.285.297-.32.71 0 .238.071.445.213.623a.94.94 0 0 0 .694.267h3.575v13.825c0 .8-.036 1.378-.106 1.734-.035.325-.249.622-.641.889-.391.266-1.049.4-1.974.4-.462 0-.783.045-.961.133-.141.06-.23.282-.266.666 0 .238.071.446.213.623Z"/><path fill-rule="evenodd" clip-rule="evenodd" d="M160.821 9.261a4.252 4.252 0 0 1-.453 1.892 5.008 5.008 0 0 1-1.286 1.602 6.121 6.121 0 0 1-1.923 1.07 6.954 6.954 0 0 1-2.267.374c-1.571.001-3.078-.518-4.19-1.444-1.111-.926-1.737-2.183-1.739-3.494.001-.649.155-1.291.453-1.891.298-.6.735-1.144 1.286-1.603a6.117 6.117 0 0 1 1.922-1.07 6.962 6.962 0 0 1 2.268-.375c.778-.001 1.549.126 2.268.374a6.12 6.12 0 0 1 1.923 1.07c.55.46.987 1.004 1.285 1.604.299.6.452 1.242.453 1.891Zm-5.929 2.47c.389 0 .774-.064 1.134-.188.359-.123.686-.305.961-.535.275-.229.494-.501.643-.8.149-.3.226-.622.226-.947a2.12 2.12 0 0 0-.226-.945 2.485 2.485 0 0 0-.643-.802 3.057 3.057 0 0 0-.961-.535 3.48 3.48 0 0 0-1.134-.187c-.785 0-1.539.26-2.095.722-.555.463-.868 1.091-.869 1.747 0 .655.313 1.283.869 1.747.556.463 1.309.723 2.095.723Zm-2.599 4.617v23.817c0 .266.09.473.268.621.178.179.426.267.747.267.319 0 .586-.118.8-.355.214-.207.409-.519.587-.934a8.51 8.51 0 0 1 .48-.978h.267c2.312 1.452 5.051 2.178 8.217 2.178 2.135 0 4.145-.474 6.03-1.422 1.886-.949 3.38-2.237 4.483-3.868 1.138-1.659 1.707-3.481 1.707-5.467 0-2.015-.497-3.807-1.494-5.379-.96-1.6-2.294-2.844-4.002-3.733-1.708-.89-3.611-1.333-5.709-1.333-1.282 0-2.58.221-3.896.666a10.346 10.346 0 0 0-3.468 1.912h-.16v-5.911a10.698 10.698 0 0 1-4.857-.08Zm16.116 20.66c-1.316 1.63-3.06 2.445-5.229 2.445-1.139 0-2.152-.207-3.042-.622-.854-.415-1.548-.904-2.081-1.467-.499-.593-.8-1.127-.907-1.6V24.03c1.529-1.364 3.414-2.045 5.656-2.045 2.526 0 4.428.83 5.71 2.49 1.28 1.63 1.92 3.6 1.92 5.91 0 2.757-.675 4.965-2.027 6.624ZM14.287.345A2.54 2.54 0 0 1 15.58 0c.463 0 .915.12 1.292.345 9.63 5.73 13.995 12.6 14.271 22.455.127 4.707-.416 9.016-2.071 12.738-1.699 3.725-4.717 7.166-9.16 10.072-.278.18-.601.302-.945.357a2.655 2.655 0 0 1-1.036-.038c-1.361-.326-1.593-1.67-2.351-2.507-.758.837-.988 2.18-2.351 2.506-.337.08-.692.094-1.036.038a2.455 2.455 0 0 1-.943-.357c-4.444-2.906-7.464-6.346-9.161-10.071C.435 31.816-.11 27.507.018 22.8.292 12.944 4.658 6.073 14.288.345Zm4.98 41.02c2.78-2.131 4.457-4.455 5.64-7.127 1.49-3.267 1.92-6.878 1.791-11.351-.214-7.686-2.374-12.687-8.913-17.33V19.14c2.557.549 3.704 2.638 3.704 4.938 0 2.302-1.147 4.392-3.704 4.94V40.13s1.188.914 1.481 1.236Zm-7.412 0c-2.781-2.131-4.418-4.455-5.603-7.127-1.49-3.267-1.919-6.878-1.788-11.351.213-7.67 2.361-12.692 8.874-17.33V19.14c-2.557.549-3.706 2.638-3.706 4.938 0 2.302 1.147 4.392 3.706 4.94V40.13s-1.2.925-1.483 1.236Zm3.706-19.757c-.786 0-1.54.26-2.095.723-.556.463-.869 1.09-.87 1.746 0 1.365 1.328 2.47 2.965 2.47.785 0 1.539-.26 2.095-.722.555-.463.868-1.091.87-1.747 0-1.364-1.328-2.47-2.965-2.47Z"/></g><defs><clipPath id="a"><path fill="#fff" d="M0 0h225v46H0z"/></clipPath></defs></svg>