<svg width="224" height="42" fill="none" xmlns="http://www.w3.org/2000/svg"><g clip-path="url(#a)"><path d="M24.736 33.95a7.5 7.5 0 0 1-3.863-.95 8.09 8.09 0 0 1-2.942-2.828c-2.337 2.32-5.365 3.66-8.537 3.778-5.7 0-8.788-4.279-7.745-10.413.793-4.613 4.342-9.235 5.334-12.946-1.92-1.245-4.77-2.112-6.106.432L0 10.456c.7-2.79 2.39-4.644 4.832-4.644 2.442 0 4.248 1.544 6.576.122h1.857c-.99 5.556-3.496 10-4.832 17.78-.814 4.769.7 6.936 3.257 6.936 1.89-.252 3.628-1.245 4.884-2.791a23.824 23.824 0 0 1-1.513-8.546c0-6.757 2.912-13.88 7.796-13.88 2.505 0 4.362 1.856 4.362 6.257 0 4.4-2.504 11.213-5.698 15.49a4.523 4.523 0 0 0 1.417 2.611 4.03 4.03 0 0 0 2.654 1.048c4.655 0 7.91-7.437 7.91-14.315 0-6.878-2.796-6.568-2.556-8.89.022-.29.096-.573.22-.832.122-.26.291-.49.497-.678a2.008 2.008 0 0 1 1.506-.535c1.452 0 3.36 1.956 3.36 9.891 0 10.112-5.05 18.47-11.793 18.47ZM23.682 8.923c-1.451 0-2.85 5.701-3.027 11.591a26.882 26.882 0 0 0 .063 3.779c2.189-3.853 3.524-8.2 3.903-12.703-.01-2.001-.355-2.668-.94-2.668l.001.001ZM46.09 33.695a3.94 3.94 0 0 1-1.802-.224 4.14 4.14 0 0 1-1.543-1.015 4.481 4.481 0 0 1-.992-1.617 4.707 4.707 0 0 1-.256-1.913c0-2.722 3.32-16.292 3.32-18.525 0-1.055-.23-1.678-1.106-1.678a4.938 4.938 0 0 0-2.62 1.366V8.167c1.519-1.49 3.48-2.345 5.53-2.411a3.988 3.988 0 0 1 1.81.247 4.213 4.213 0 0 1 1.542 1.035c.436.46.774 1.016.99 1.63.213.613.3 1.27.25 1.922 0 2.722-3.317 16.236-3.317 18.459 0 1.056.229 1.678 1.106 1.678a5.308 5.308 0 0 0 2.62-1.3v1.855c-1.514 1.5-3.479 2.357-5.532 2.413Zm4.07-39.22c.455-.015.907.074 1.327.265.418.19.794.474 1.098.833.305.357.533.783.668 1.246.135.464.173.954.112 1.435A4.367 4.367 0 0 1 52.083.92a3.879 3.879 0 0 1-2.611 1.113 2.965 2.965 0 0 1-1.326-.265 3.142 3.142 0 0 1-1.1-.833 3.357 3.357 0 0 1-.667-1.246 3.54 3.54 0 0 1-.112-1.435 4.368 4.368 0 0 1 1.282-2.666 3.881 3.881 0 0 1 2.611-1.113Zm12.921 33.396c-.291 1.678-.114 2.845.992 2.845a5.086 5.086 0 0 0 2.62-1.3l.104 1.866c-1.52 1.49-3.481 2.346-5.532 2.413-3.611 0-5.009-2.79-4.476-6.257l3.548-21.504c1.18-7.18.772-8.125-2.84-8.125l.23-1.733 10.886-1.534-5.532 33.33Zm30.613-.056c-.293 1.678-.179 2.912.99 2.912a5.395 5.395 0 0 0 2.621-1.367v1.922c-1.51 1.507-3.477 2.365-5.531 2.413a4.004 4.004 0 0 1-2.893-.947c-.816-.683-1.364-1.675-1.534-2.777a9.676 9.676 0 0 1-3.288 2.93 9.045 9.045 0 0 1-4.163 1.094c-6.92 0-9.832-6.502-8.496-14.315 1.336-7.812 7.566-14.19 14.611-14.19a9.32 9.32 0 0 1 4.791 1.21l.177-.989c1.379-7.646.742-7.902-2.87-7.902l.178-1.733 10.937-1.534-5.531 33.274v-.001ZM86.189 8.29c-4.019 0-6.69 5.078-7.744 11.335-1.107 6.568-.407 11.113 3.371 11.113 2.557 0 5.469-3.335 6.345-8.424l2.151-12.89a7.035 7.035 0 0 0-4.123-1.134Zm25.894 25.715c-8.089 0-10.301-6.202-9.309-12.147l2.64-15.924c1.221-7.19.815-8.18-2.797-8.18l.229-1.733 10.917-1.48-2.212 13.504c1.707-1.576 3.862-2.474 6.106-2.545 7.045 0 10.353 6.38 9.08 14.191-1.273 7.814-7.754 14.314-14.654 14.314Zm3.779-25.56a5.363 5.363 0 0 0-3.252 1.203 5.952 5.952 0 0 0-1.967 3.008l-1.628 10.002c-.992 5.946.992 8.368 3.497 8.368 3.663 0 5.938-4.333 7.159-11.457 1.086-6.38.095-11.09-3.82-11.09l.011-.034Zm21.907 14.847c0 4.768 2.15 7.313 6.262 7.313 2.088 0 5.124-1.544 7.046-3.59l.813 1.978a15.095 15.095 0 0 1-4.876 3.666 14.274 14.274 0 0 1-5.832 1.357c-6.105 0-10.239-4.834-10.239-11.402 0-9.724 7.567-17.103 14.842-17.103 4.425 0 6.919 2.6 6.919 5.635-.051 4.71-4.247 10.002-14.935 12.146Zm7.504-14.936c-3.319 0-6.512 5.145-7.39 12.514 6.691-1.735 9.54-6.568 9.603-9.669-.011-1.733-.773-2.845-2.223-2.845h.01Zm31.176 25.339a4.004 4.004 0 0 1-2.892-.947c-.817-.684-1.364-1.675-1.533-2.777a9.364 9.364 0 0 1-3.207 2.932 8.724 8.724 0 0 1-4.099 1.09c-6.805 0-9.717-6.5-8.35-14.313 1.367-7.812 7.494-14.181 14.56-14.181 1.497-.008 2.981.31 4.362.935h6.638l-3.559 21.38c-.292 1.68-.177 2.913.992 2.913a5.401 5.401 0 0 0 2.62-1.367v1.922c-1.51 1.507-3.477 2.365-5.532 2.413ZM171.095 8.29c-3.904 0-6.638 5.078-7.682 11.335-1.107 6.568-.344 11.113 3.131 11.113 2.672 0 5.531-3.467 6.346-8.424l2.15-12.89a6.437 6.437 0 0 0-3.935-1.134h-.01Zm31.196 4.522c-1.576 0-1.984-1.3-2.442-2.667a3.07 3.07 0 0 0-1.062-1.725 2.74 2.74 0 0 0-1.85-.609 3.326 3.326 0 0 0-2.38.833 3.744 3.744 0 0 0-1.231 2.324c-.177 1.678.991 3.1 3.203 5.145l2.965 2.6a8.068 8.068 0 0 1 2.473 3.459 8.594 8.594 0 0 1 .439 4.32c-.752 4.645-4.363 7.501-9.196 7.501-5.824 0-9.539-3.656-9.132-6.134a2.828 2.828 0 0 1 .872-1.678 2.52 2.52 0 0 1 1.685-.678c1.514 0 2.087 1.234 2.557 2.845a4.42 4.42 0 0 0 1.649 2.258c.771.54 1.683.792 2.599.72a3.504 3.504 0 0 0 2.496-.886 3.944 3.944 0 0 0 1.282-2.446c.23-2.224-1.043-3.59-3.433-5.891l-2.912-2.723a7.74 7.74 0 0 1-2.318-3.22 8.247 8.247 0 0 1-.48-4.025c.523-2.978 3.132-6.668 9.133-6.668 4.655 0 7.567 2.79 7.306 5.023a2.516 2.516 0 0 1-.685 1.624c-.412.43-.962.68-1.538.698Zm21.302-3.889h-5.647l-2.733 16.47c-.586 3.411-.116 4.956 1.627 4.956.929 0 2.39-.555 4.478-2.845l.114 2.412a10.256 10.256 0 0 1-3.446 2.816 9.65 9.65 0 0 1-4.235 1.028c-3.956 0-5.938-2.977-4.999-8.49l2.734-16.347h-4.415l.345-2.544h4.456l1.169-7.369h6.513l-1.221 7.367h5.646l-.386 2.546Z" fill="#9C9C9C"/></g><defs><clipPath id="a"><path fill="#fff" d="M0 0h224v42H0z"/></clipPath></defs></svg>