<svg width="32" height="32" fill="none" xmlns="http://www.w3.org/2000/svg"><g clip-path="url(#a)"><path d="M24 25.573c-2.16 0-3.52.806-4.72 1.535-1.04.633-1.888 1.151-3.28 1.151-1.44 0-2.24-.48-3.28-1.151-1.2-.73-2.512-1.535-4.72-1.535-2.208 0-3.52.806-4.72 1.535-.688.422-1.296.787-2.032.997-.72.192-1.248.883-1.248 1.746v.192c0 1.151.896 1.976 1.824 1.746 1.184-.288 2.08-.825 2.896-1.324 1.04-.633 1.872-1.15 3.28-1.15 1.408 0 2.24.479 3.28 1.15C12.48 31.195 13.792 32 16 32c2.208 0 3.52-.806 4.72-1.535 1.04-.633 1.888-1.15 3.28-1.15 1.44 0 2.24.479 3.28 1.15.832.499 1.728 1.055 2.928 1.343.216.05.439.044.653-.02.213-.064.413-.184.584-.35a1.79 1.79 0 0 0 .405-.614c.096-.238.147-.498.15-.762v-.172c0-.883-.544-1.573-1.264-1.765-.736-.192-1.328-.557-2.016-.998-1.2-.748-2.56-1.554-4.72-1.554Zm0-8.537c-2.16 0-3.52.825-4.72 1.535-1.04.614-1.888 1.15-3.28 1.15-1.44 0-2.24-.479-3.28-1.15-1.2-.73-2.512-1.535-4.72-1.535-2.208 0-3.52.825-4.72 1.535-.688.403-1.296.786-2.048.997C.528 19.76 0 20.451 0 21.314v.192c0 .265.05.527.145.766.095.24.233.45.405.618.171.167.372.286.587.349.215.063.439.067.655.013 1.2-.288 2.096-.844 2.928-1.324 1.04-.671 1.84-1.151 3.28-1.151 1.44 0 2.24.48 3.28 1.151 1.2.73 2.512 1.535 4.72 1.535 2.208 0 3.52-.825 4.72-1.535 1.04-.671 1.84-1.151 3.28-1.151 1.44 0 2.24.48 3.28 1.151.832.499 1.728 1.055 2.928 1.343.218.05.442.043.656-.022a1.43 1.43 0 0 0 .587-.354c.17-.17.309-.381.404-.621.095-.24.144-.502.145-.768v-.173c0-.882-.544-1.573-1.264-1.765-.736-.192-1.328-.556-2.016-.997-1.2-.73-2.56-1.535-4.72-1.535Zm4.72-15.501C27.52.805 26.192 0 24 0c-2.192 0-3.52.806-4.72 1.535-1.04.614-1.888 1.15-3.28 1.15-1.44 0-2.24-.479-3.28-1.15C11.52.825 10.208 0 8 0 5.792 0 4.48.806 3.28 1.535c-.688.422-1.296.786-2.032.997C.528 2.724 0 3.415 0 4.278v.134c0 1.152.864 1.996 1.792 1.765 1.2-.287 2.096-.844 2.928-1.323C5.76 4.22 6.592 3.703 8 3.703c1.408 0 2.24.48 3.28 1.15 1.2.73 2.512 1.535 4.72 1.535 2.208 0 3.52-.824 4.72-1.534 1.04-.614 1.888-1.151 3.28-1.151 1.44 0 2.24.48 3.28 1.15.832.5 1.728 1.056 2.928 1.344.218.05.442.043.656-.022.215-.065.415-.186.587-.355.17-.168.309-.38.404-.62.095-.24.144-.503.145-.768v-.173c0-.883-.544-1.573-1.264-1.765-.736-.192-1.328-.537-2.016-.96ZM24 8.499c-2.16 0-3.52.825-4.72 1.535-1.04.671-1.84 1.15-3.28 1.15-1.44 0-2.24-.479-3.28-1.15-1.2-.73-2.512-1.535-4.72-1.535-2.208 0-3.52.825-4.72 1.535-.688.44-1.28.805-2.016.997-.72.192-1.264.883-1.264 1.765v.173c0 .265.05.527.145.766.095.24.233.45.405.618.171.167.372.286.587.349.215.062.439.067.655.013 1.2-.288 2.096-.845 2.928-1.324C5.76 12.777 6.608 12.24 8 12.24s2.24.48 3.28 1.15c1.2.73 2.512 1.536 4.72 1.536 2.208 0 3.52-.825 4.72-1.535 1.04-.614 1.888-1.151 3.28-1.151 1.44 0 2.24.48 3.28 1.15.832.5 1.728 1.056 2.928 1.344.216.05.439.043.653-.02.213-.065.413-.184.584-.35.17-.167.309-.377.405-.614.096-.238.147-.498.15-.762v-.173c0-.882-.544-1.573-1.264-1.765-.736-.192-1.328-.556-2.016-.997-1.2-.748-2.56-1.554-4.72-1.554Z" fill="url(#b)"/></g><defs><linearGradient id="b" x1="16" y1="0" x2="16" y2="32" gradientUnits="userSpaceOnUse"><stop stop-color="#FFBF00"/><stop offset="1" stop-color="#F2A50C"/></linearGradient><clipPath id="a"><path fill="#fff" d="M0 0h32v32H0z"/></clipPath></defs></svg>