<svg width="32" height="32" fill="none" xmlns="http://www.w3.org/2000/svg"><g clip-path="url(#a)"><path d="M25.333 8.727H24.24L21.973 1.92a2.903 2.903 0 0 0-.976-1.39 2.527 2.527 0 0 0-1.53-.53h-2.134C16.6 0 16 .655 16 1.455s.6 1.454 1.333 1.454h2.134l1.946 5.818H15l-.48-1.454h.12c.733 0 1.333-.655 1.333-1.455s-.6-1.454-1.333-1.454h-3.973c-.734 0-1.334.654-1.334 1.454 0 .8.6 1.455 1.334 1.455h1l2.426 7.273H13.2c-.587-3.244-3.08-5.644-6.2-5.804C3.267 8.538 0 11.927 0 16s2.933 7.273 6.667 7.273c3.28 0 5.933-2.459 6.533-5.819h5.6c.587 3.244 3.08 5.644 6.2 5.804 3.733.19 7-3.185 7-7.272 0-4.059-2.933-7.259-6.667-7.259ZM8 17.454h2.427c-.56 1.79-2.134 3.026-4.027 2.895-1.987-.13-3.64-1.963-3.733-4.145-.094-2.546 1.693-4.568 4-4.568 1.773 0 3.226 1.208 3.76 2.91H8c-.733 0-1.333.654-1.333 1.454 0 .8.6 1.454 1.333 1.454Zm10.8-2.909h-1.867l-.973-2.909H20a7.197 7.197 0 0 0-1.2 2.91Zm6.373 5.819c-2.053-.088-3.786-1.993-3.84-4.248-.026-1.396.52-2.618 1.4-3.432l.827 2.472c.253.757 1.013 1.15 1.707.873.693-.276 1.053-1.105.8-1.862l-.84-2.516.013-.015a3.665 3.665 0 0 1 1.566.29c.499.21.953.53 1.336.938.382.407.685.896.89 1.435.205.539.307 1.117.301 1.701 0 2.502-1.84 4.45-4.16 4.364Zm-10.506 7.272H9.333l8 4.364v-2.91h5.334l-8-4.363v2.91Z" fill="url(#b)"/></g><defs><linearGradient id="b" x1="16" y1="0" x2="16" y2="32" gradientUnits="userSpaceOnUse"><stop stop-color="#FFBF00"/><stop offset="1" stop-color="#F2A50C"/></linearGradient><clipPath id="a"><path fill="#fff" d="M0 0h32v32H0z"/></clipPath></defs></svg>