<svg width="32" height="32" fill="none" xmlns="http://www.w3.org/2000/svg"><g clip-path="url(#a)"><path d="M17.334 11.515a5.817 5.817 0 0 0-5.818 5.818 5.817 5.817 0 0 0 5.818 5.819 5.817 5.817 0 0 0 5.818-5.819 5.817 5.817 0 0 0-5.818-5.818Zm13.004 4.364a13.082 13.082 0 0 0-11.55-11.55V2.789c0-.8-.654-1.455-1.454-1.455-.8 0-1.455.655-1.455 1.455V4.33A13.082 13.082 0 0 0 4.33 15.879H2.79c-.8 0-1.455.654-1.455 1.454 0 .8.655 1.455 1.455 1.455H4.33a13.082 13.082 0 0 0 11.55 11.549v1.542c0 .8.654 1.454 1.454 1.454.8 0 1.454-.654 1.454-1.454v-1.542a13.082 13.082 0 0 0 11.55-11.55h1.541c.8 0 1.455-.654 1.455-1.454 0-.8-.655-1.454-1.455-1.454h-1.541ZM17.334 27.515A10.174 10.174 0 0 1 7.152 17.333c0-5.629 4.553-10.181 10.182-10.181 5.63 0 10.182 4.552 10.182 10.181 0 5.63-4.553 10.182-10.182 10.182Z" fill="url(#b)"/></g><defs><linearGradient id="b" x1="17.334" y1="1.333" x2="17.334" y2="33.333" gradientUnits="userSpaceOnUse"><stop stop-color="#FFBF00"/><stop offset="1" stop-color="#F2A50C"/></linearGradient><clipPath id="a"><path fill="#fff" d="M0 0h32v32H0z"/></clipPath></defs></svg>