<svg width="32" height="32" fill="none" xmlns="http://www.w3.org/2000/svg"><g clip-path="url(#a)"><path d="M27.938 12.024c-.158.291-.251.63-.27.98-.02.35.035.702.158 1.018.397 1.156.677 2.37.832 3.615.412 3.217.027 6.513-1.104 9.449a1.88 1.88 0 0 1-.593.777 1.367 1.367 0 0 1-.83.282H5.89c-.294 0-.582-.1-.834-.29a1.892 1.892 0 0 1-.59-.79C3.44 24.473 3 21.58 3.189 18.698c.189-2.882 1-5.647 2.35-7.998 1.347-2.352 3.182-4.203 5.306-5.355 2.125-1.153 4.46-1.564 6.757-1.19 1.162.17 2.299.547 3.376 1.118.253.155.534.223.815.199.281-.025.552-.142.785-.339.243-.2.438-.478.563-.806.126-.328.178-.692.15-1.054a2.31 2.31 0 0 0-.308-.998 1.707 1.707 0 0 0-.677-.657c-3.09-1.655-6.52-2.052-9.803-1.134-3.282.918-6.248 3.103-8.479 6.246C1.794 9.872.414 13.812.08 17.989c-.334 4.179.394 8.382 2.083 12.013.279.604.68 1.106 1.162 1.457.483.35 1.031.537 1.59.541h22.16a2.725 2.725 0 0 0 1.607-.531c.49-.351.895-.857 1.177-1.467 1.236-2.674 1.959-5.669 2.111-8.75.153-3.081-.268-6.164-1.23-9.008a1.946 1.946 0 0 0-.55-.803 1.406 1.406 0 0 0-.799-.342 1.337 1.337 0 0 0-.827.214 1.797 1.797 0 0 0-.625.711Z" fill="url(#b)"/><path d="M14.12 16.787a2.668 2.668 0 0 0 3.774 3.773L25.44 9.24l-11.32 7.547Z" fill="url(#c)"/></g><defs><linearGradient id="b" x1="16" y1="0" x2="16" y2="32" gradientUnits="userSpaceOnUse"><stop stop-color="#FFBF00"/><stop offset="1" stop-color="#F2A50C"/></linearGradient><linearGradient id="c" x1="19.39" y1="9.24" x2="19.39" y2="21.341" gradientUnits="userSpaceOnUse"><stop stop-color="#FFBF00"/><stop offset="1" stop-color="#F2A50C"/></linearGradient><clipPath id="a"><path fill="#fff" d="M0 0h32v32H0z"/></clipPath></defs></svg>